<?xml version="1.0" encoding="utf-8"?>
<svg version="1.1" id="Layer_1" x="0px" y="0px" viewBox="0 0 504.224 504.224" style="enable-background:new 0 0 504.224 504.224;" xmlns="http://www.w3.org/2000/svg">
  <path style="fill:#B7854E;" d="M495.065,450.956l-98.462-98.462c0.788-3.151,0.788-6.695,0.788-10.24 c0-30.326-24.812-55.138-55.138-55.138s-55.138,24.812-55.138,55.138s24.812,55.138,55.138,55.138c3.545,0,7.089-0.394,10.24-0.788 l98.068,98.462c12.209,12.209,31.902,12.209,44.111,0C507.274,482.858,507.274,463.165,495.065,450.956z M495.065,450.956 l-98.462-98.462c0.788-3.151,0.788-6.695,0.788-10.24c0-30.326-24.812-55.138-55.138-55.138s-55.138,24.812-55.138,55.138 s24.812,55.138,55.138,55.138c3.545,0,7.089-0.394,10.24-0.788l98.068,98.462c12.209,12.209,31.902,12.209,44.111,0 C507.274,482.858,507.274,463.165,495.065,450.956z"/>
  <path style="fill:#BE8D54;" d="M291.446,321.774c11.422,8.665,24.025,18.905,31.508,29.538 c10.24,14.178,18.117,28.357,25.994,43.717l1.182,2.363l2.363-0.394l9.846,9.846l-8.271-14.966 c-8.271-15.36-15.754-29.932-26.388-44.505c-8.271-11.422-22.055-22.449-33.871-31.508 C293.415,317.836,292.234,319.805,291.446,321.774z M423.385,449.774c-9.058-18.511-15.36-35.052-21.268-50.018 c-11.422-29.932-20.086-51.594-40.96-61.046c-11.028-4.726-16.935-5.514-20.086-1.575c-5.12,5.908,1.182,18.117,18.511,44.898 l37.415,58.289c0.394,0.394,0.394,0.788,0.788,0.788c1.182,0.788,2.363,0.788,3.545,0c1.575-0.788,1.969-2.757,0.788-4.332 l-37.415-58.289c-5.908-9.058-21.268-33.477-18.905-37.415c0,0,1.969-1.182,12.603,3.545c18.511,8.271,26.388,27.963,37.809,57.502 c5.514,14.572,12.209,31.508,21.268,50.412c3.151,6.695,5.514,11.815,7.483,16.542l11.028,11.028 C434.018,473.405,430.08,463.953,423.385,449.774z M465.132,497.036c-12.209-23.237-24.812-47.262-30.326-61.834 c-1.575-3.938-2.757-8.271-4.332-12.603c-6.695-19.692-14.966-43.717-30.326-66.166l-3.545-3.545v-1.182 c-10.24-13.391-23.237-25.994-40.172-36.234h-13.785c53.169,24.812,70.105,74.437,81.92,109.095 c1.575,4.726,3.151,8.665,4.332,12.997c5.514,14.966,18.117,39.385,30.326,62.622c0.394,0.394,0.394,0.788,0.788,1.575 c2.757,1.182,5.514,1.969,8.665,2.363L465.132,497.036L465.132,497.036z M331.618,396.605c2.363,0.394,5.12,0.788,7.877,0.788 c-12.209-23.237-25.206-44.898-51.2-62.622c-0.394,2.363-0.394,4.726-0.788,7.483C308.775,357.614,320.591,376.125,331.618,396.605z M390.302,315.473H384c3.545,2.363,6.695,5.12,9.846,7.877C393.058,320.593,391.877,317.836,390.302,315.473z M481.674,473.011 c-7.089-18.905-9.058-33.083-5.514-40.566l-4.726-4.726c-4.332,7.483-5.514,21.268,4.332,47.655 c3.151,7.877,6.695,16.935,10.634,25.994c1.969-0.788,3.938-1.969,5.514-3.545C488.369,489.947,485.218,481.676,481.674,473.011z M503.729,468.679c-0.394-3.938-1.969-7.877-3.938-11.422c-3.151,7.089-3.151,18.511,0,31.902c2.363-3.938,3.938-8.665,4.332-12.997 C503.729,473.405,503.729,471.042,503.729,468.679z M482.855,502.55c-17.329-37.809-33.083-78.375-44.505-108.308l-11.028-11.028 l2.757,7.089c14.966,38.991,30.326,78.375,46.474,113.822C478.917,503.731,480.886,503.338,482.855,502.55z"/>
  <path style="fill:#CC9357;" d="M500.185,488.371c6.695-11.815,5.12-27.175-5.12-37.415l-98.068-98.462 c0.788-3.151,0.788-6.695,0.788-10.24c0-30.326-24.812-55.138-55.138-55.138c-12.209,0-23.237,3.938-32.689,10.634 c-6.695,9.452-10.634,20.874-10.634,33.083c0,30.326,24.812,55.138,55.138,55.138c3.545,0,7.089-0.394,10.24-0.788l98.068,98.462 C473.009,493.491,488.369,495.067,500.185,488.371z"/>
  <path style="fill:#D49D5E;" d="M313.108,367.067c4.726,5.12,10.24,9.452,16.148,12.603c-7.483-12.209-16.148-24.025-27.963-34.658 c1.575,6.695,4.726,12.603,8.665,18.117C309.957,363.128,313.108,367.067,313.108,367.067z M481.674,473.011 c-7.089-18.905-9.058-33.083-5.514-40.566l-4.726-4.726c-4.332,7.483-5.514,21.268,4.332,47.655 c1.969,5.12,4.332,11.028,6.695,16.935c2.363,0,4.726,0,6.695-0.394C486.794,486.008,484.431,479.313,481.674,473.011z M503.729,468.679c-0.394-3.938-1.969-7.877-3.938-11.422c-3.151,6.695-3.151,18.117-0.394,31.114c0,0,0.394,0,0.394-0.394 c2.363-3.938,3.545-8.665,3.938-12.997V468.679z M299.323,328.076c9.058,7.089,17.723,15.36,23.631,23.237 c8.271,11.028,14.572,22.055,20.874,33.477c2.363,0.394,5.12,0.788,7.877,0.788c-7.089-12.997-14.178-25.6-23.237-38.203 c-7.089-9.452-17.723-18.905-27.963-26.782C299.717,322.956,299.717,325.319,299.323,328.076z M438.351,394.242l-11.028-11.028 l2.757,7.089c12.603,33.083,25.994,66.954,39.778,97.674c2.757,1.575,5.514,2.757,8.271,3.151 C462.375,456.864,448.591,421.418,438.351,394.242z M390.302,315.473H384c3.545,2.363,6.695,5.12,9.846,7.877 C393.058,320.593,391.877,317.836,390.302,315.473z M435.2,434.808c-1.575-3.938-2.757-8.271-4.332-12.603 c-6.695-19.692-14.966-43.717-30.326-66.166l-3.545-3.545v-1.182c-10.24-13.391-23.237-25.994-40.172-36.234h-14.178 c53.169,24.812,70.105,74.437,81.92,109.095c1.575,4.726,3.151,8.665,4.332,12.997c1.969,5.908,5.514,13.391,9.452,21.662 l14.178,14.178C445.046,458.439,438.351,444.655,435.2,434.808L435.2,434.808z M361.157,338.71 c-11.028-4.726-16.935-5.514-20.086-1.575c-5.12,5.908,1.182,18.117,18.511,44.898l1.969,3.151l3.151-0.394l11.422,11.422 l-11.422-17.723c-5.908-9.058-21.268-33.477-18.905-37.415c0,0,1.969-1.182,12.603,3.545c18.511,8.271,26.388,27.963,37.809,57.502 c2.757,7.483,5.908,15.36,9.452,23.631l12.209,12.209c-6.302-14.178-11.422-26.782-15.754-38.203 C390.695,369.824,382.031,348.162,361.157,338.71z"/>
  <path style="fill:#B4E7F8;" d="M204.8,39.387c91.372,0,165.415,74.043,165.415,165.415S296.172,370.218,204.8,370.218 S39.385,296.174,39.385,204.802S113.428,39.387,204.8,39.387z"/>
  <path style="fill:#A6D5E5;" d="M204.8,39.387c-49.625,0-94.129,22.055-124.455,56.714c29.145-25.6,66.954-40.96,108.702-40.96 c91.372,0,165.415,74.043,165.415,165.415c0,41.748-15.36,79.557-40.96,108.702c34.658-30.326,56.714-74.831,56.714-124.455 C370.215,113.43,296.172,39.387,204.8,39.387z"/>
  <path style="fill:#3C5663;" d="M204.8,0.002C91.766,0.002,0,91.768,0,204.802s91.766,204.8,204.8,204.8s204.8-91.766,204.8-204.8 S317.834,0.002,204.8,0.002z M204.8,366.279c-89.009,0-161.477-72.468-161.477-161.477S115.791,43.325,204.8,43.325 s161.477,72.468,161.477,161.477S293.809,366.279,204.8,366.279z M204.8,0.002C91.766,0.002,0,91.768,0,204.802 s91.766,204.8,204.8,204.8s204.8-91.766,204.8-204.8S317.834,0.002,204.8,0.002z M204.8,366.279 c-89.009,0-161.477-72.468-161.477-161.477S115.791,43.325,204.8,43.325s161.477,72.468,161.477,161.477 S293.809,366.279,204.8,366.279z"/>
  <g/>
  <g/>
  <g/>
  <g/>
  <g/>
  <g/>
  <g/>
  <g/>
  <g/>
  <g/>
  <g/>
  <g/>
  <g/>
  <g/>
  <g/>
  <path style="fill: rgb(245, 245, 245);" d="M 331.481 297.917 L 78.958 297.917 C 76.468 297.917 74.447 295.703 74.447 292.974 L 74.447 115.028 C 74.447 112.298 76.468 110.085 78.958 110.085 L 331.481 110.085 C 333.973 110.085 335.992 112.298 335.992 115.028 L 335.992 292.974 C 335.992 295.705 333.971 297.917 331.481 297.917 Z"/>
  <g transform="matrix(0.510827, 0, 0, 0.559942, 74.448669, 60.656578)" style="">
    <path style="fill:#41479B;" d="M211.862,220.691H8.828c-4.875,0-8.828-3.953-8.828-8.828V97.104c0-4.875,3.953-8.828,8.828-8.828 h203.034c4.875,0,8.828,3.953,8.828,8.828v114.759C220.69,216.738,216.737,220.691,211.862,220.691z"/>
    <path style="fill:#41479B;" d="M503.172,423.725H300.138c-4.875,0-8.828-3.953-8.828-8.828V300.139 c0-4.875,3.953-8.828,8.828-8.828h203.034c4.875,0,8.828,3.953,8.828,8.828v114.759C512,419.773,508.047,423.725,503.172,423.725z"/>
  </g>
  <g transform="matrix(0.510827, 0, 0, 0.559942, 74.448669, 60.656578)" style="">
    <path style="fill:#FF4B55;" d="M503.172,220.691H300.138c-4.875,0-8.828-3.953-8.828-8.828V97.104c0-4.875,3.953-8.828,8.828-8.828 h203.034c4.875,0,8.828,3.953,8.828,8.828v114.759C512,216.738,508.047,220.691,503.172,220.691z"/>
    <path style="fill:#FF4B55;" d="M211.862,423.725H8.828c-4.875,0-8.828-3.953-8.828-8.828V300.139c0-4.875,3.953-8.828,8.828-8.828 h203.034c4.875,0,8.828,3.953,8.828,8.828v114.759C220.69,419.773,216.737,423.725,211.862,423.725z"/>
  </g>
  <g transform="matrix(0.510827, 0, 0, 0.559942, 74.448669, 60.656578)" style="">
    <path style="fill:#64B496;" d="M250.932,281.172c0,0,5.274,1.931,4.586,8.552l2.132-0.04c0,0-1.345-7.651-2.457-8.568 S250.932,281.172,250.932,281.172z"/>
    <path style="fill:#64B496;" d="M256.218,280.15c-2.237,0-6.147-0.003-10.259-1.113c0.917-0.954,2.184-2.876,2.184-6.227 c0-5.248-3.616-1.9-3.616-1.9s-2.378,2.001-0.94,7.35c-1.402-0.535-2.793-1.225-4.119-2.109c0.825-1.036,2.471-3.45,3.427-7.278 c0,0-6.026-1.191-7.674,3.347c-1.01-1.281-1.874-2.722-2.595-4.317c1.549,0.019,3.71-1.003,3.71-6.901c0,0-3.935,0.007-4.986,3.42 c-0.414-1.427-0.729-2.956-0.961-4.572c1.571,0.456,5.633,0.783,5.633-8.032c0,0-4.877,0.009-6.006,4.329 c-0.062-1.105-0.086-2.247-0.075-3.425c2.368-1.238,5.636-3.965,5.297-9.56c0,0-2.249,0.51-4.311,2.239 c0.406-2.121,0.238-5.226-3.015-7.817c0,0-2.989,5.29,1.377,9.585c-0.38,0.534-0.711,1.142-0.984,1.817 c-0.981-1.494-2.554-2.883-5.088-3.727c0,0-1.166,7.085,5.449,10.049c0.157,4.138,0.804,7.794,1.916,10.973 c-1.895-1.669-3.428-3.967-3.428-3.967c0-7.872-6.453-8.071-6.453-8.071c-1.205,8.985,5.439,9.348,5.439,9.348l3.638,3.97 c-7.872-1.312-7.872,5.248-7.872,5.248c5.248,1.312,7.872-1.312,7.872-1.312l2.838,1.459c-5.034,0.147-6.774,5.101-6.774,5.101 c6.327,1.055,10.953-0.433,12.526-1.057c6.372,4.455,14.226,4.461,17.852,4.461v-1.311L256.218,280.15L256.218,280.15z"/>
    <path style="fill:#64B496;" d="M255.772,280.15c2.237,0,6.147-0.003,10.259-1.113c-0.917-0.954-2.184-2.876-2.184-6.227 c0-5.248,3.616-1.9,3.616-1.9s2.378,2.001,0.94,7.35c1.402-0.535,2.793-1.225,4.119-2.109c-0.825-1.036-2.471-3.45-3.427-7.278 c0,0,6.026-1.191,7.674,3.347c1.01-1.281,1.874-2.722,2.595-4.317c-1.549,0.019-3.71-1.003-3.71-6.901c0,0,3.935,0.007,4.988,3.42 c0.414-1.427,0.729-2.956,0.961-4.572c-1.571,0.456-5.633,0.783-5.633-8.032c0,0,4.877,0.009,6.006,4.329 c0.062-1.105,0.086-2.247,0.075-3.425c-2.368-1.238-5.636-3.965-5.297-9.56c0,0,2.249,0.51,4.311,2.239 c-0.406-2.121-0.238-5.226,3.015-7.817c0,0,2.989,5.29-1.377,9.585c0.38,0.534,0.711,1.142,0.984,1.817 c0.981-1.494,2.554-2.883,5.088-3.727c0,0,1.166,7.085-5.449,10.049c-0.157,4.138-0.804,7.794-1.916,10.973 c1.895-1.669,3.428-3.967,3.428-3.967c0-7.872,6.453-8.071,6.453-8.071c1.205,8.985-5.439,9.348-5.439,9.348l-3.638,3.97 c7.872-1.312,7.872,5.248,7.872,5.248c-5.248,1.312-7.872-1.312-7.872-1.312l-2.838,1.459c5.034,0.147,6.774,5.101,6.774,5.101 c-6.327,1.055-10.953-0.433-12.526-1.057c-6.372,4.455-14.226,4.461-17.852,4.461L255.772,280.15L255.772,280.15L255.772,280.15z"/>
  </g>
  <path style="fill: rgb(65, 71, 155);" d="M 193.911 185.499 C 191.554 187.154 189.477 189.262 187.803 191.752 C 188.521 192.333 189.242 192.914 189.96 193.496 C 191.438 191.299 193.272 189.439 195.35 187.977 L 193.911 185.499 Z"/>
  <path style="fill: rgb(255, 107, 113);" d="M 205.226 204.598 L 214.609 204.598 L 214.609 210.475 C 214.609 212.099 213.408 213.414 211.929 213.414 L 207.906 213.414 C 206.806 213.414 205.838 214.004 205.226 214.903 L 205.226 204.598 L 205.226 204.598 Z"/>
  <polygon style="fill: rgb(95, 100, 185);" points="207.238 197.986 207.238 189.906 217.29 189.906 214.609 192.844 214.609 200.925 207.238 200.925"/>
  <rect x="211.257" y="200.923" style="fill: rgb(245, 245, 245);" width="3.35" height="3.673"/>
  <path style="fill: rgb(255, 107, 113);" d="M 205.226 204.598 L 195.844 204.598 L 195.844 210.475 C 195.844 212.099 197.045 213.414 198.526 213.414 L 202.547 213.414 C 203.647 213.414 204.617 214.004 205.226 214.903 L 205.226 204.598 L 205.226 204.598 Z"/>
  <path style="fill: rgb(245, 245, 245);" d="M 203.552 213.591 C 204.221 213.826 204.798 214.281 205.212 214.884 L 205.244 214.884 C 205.658 214.281 206.235 213.826 206.902 213.591 L 206.902 207.536 L 203.552 207.536 L 203.552 213.591 L 203.552 213.591 Z"/>
  <polygon style="fill: rgb(95, 100, 185);" points="203.217 197.986 203.217 189.906 193.163 189.906 195.844 192.844 195.844 200.925 203.217 200.925"/>
  <rect x="195.846" y="200.923" style="fill: rgb(245, 245, 245);" width="3.35" height="3.673"/>
  <polygon style="fill: rgb(65, 71, 155);" points="199.195 193.579 199.195 195.783 201.206 197.252 201.206 195.783"/>
  <polygon style="fill: rgb(245, 245, 245);" points="201.206 195.783 201.206 197.986 203.887 199.456 203.887 198.722"/>
  <polygon style="fill: rgb(65, 71, 155);" points="211.258 193.579 211.258 195.783 209.247 197.252 209.247 195.783"/>
  <polygon style="fill: rgb(245, 245, 245);" points="209.247 195.783 209.247 197.986 206.567 199.456 206.567 198.722"/>
  <path style="fill: rgb(255, 75, 85);" d="M 209.271 209.741 L 201.185 209.741 C 199.347 209.741 197.857 208.096 197.857 206.068 L 197.857 194.705 L 205.278 200.19 L 212.599 194.705 L 212.599 206.068 C 212.599 208.096 211.109 209.741 209.271 209.741 Z"/>
  <g transform="matrix(0.510827, 0, 0, 0.559942, 74.448669, 60.656578)" style="">
    <polygon style="fill:#41479B;" points="246.831,242.635 241.583,238.699 241.583,253.131 246.831,255.755 &#9;"/>
    <polygon style="fill:#41479B;" points="265.198,242.635 270.446,238.699 270.446,253.131 265.198,255.755 &#9;"/>
    <rect x="248.14" y="255.761" style="fill:#41479B;" width="15.744" height="6.56"/>
  </g>
  <polygon style="fill: rgb(255, 75, 85);" points="201.206 197.252 205.226 199.456 209.247 197.252 209.247 203.864 201.206 203.864"/>
  <g transform="matrix(0.510827, 0, 0, 0.559942, 74.448669, 60.656578)" style="">
    <path style="fill:#F5F5F5;" d="M261.919,245.187v13.192c0,1.085-0.883,1.967-1.967,1.967h-7.872c-1.085,0-1.967-0.883-1.967-1.967 v-13.138l-3.936-2.636v15.774c0,3.255,2.648,5.903,5.903,5.903h7.872c3.255,0,5.903-2.648,5.903-5.903v-15.863L261.919,245.187z"/>
    <path style="fill:#F5F5F5;" d="M263.293,254.351c-2.21,0.199-4.697,0.422-7.278,1.32c-2.58-0.898-5.068-1.121-7.278-1.32 c-3.698-0.332-5.892-0.655-7.148-2.886v3.787c1.929,1.254,4.372,1.484,6.913,1.713c2.281,0.205,4.639,0.416,7.049,1.329 l0.465,0.175l0.465-0.175c2.409-0.913,4.767-1.123,7.049-1.329c2.543-0.228,4.99-0.455,6.919-1.711v-3.798 C269.192,253.696,266.996,254.019,263.293,254.351z"/>
  </g>
  <polygon style="fill: rgb(255, 225, 90);" points="206.567 196.15 205.562 196.15 205.562 195.049 204.891 195.049 204.891 196.15 203.887 196.15 203.887 196.885 204.891 196.885 204.891 200.191 205.562 200.191 205.562 196.885 206.567 196.885"/>
  <rect x="133.288" y="124.883" transform="matrix(0.673964, -0.738764, 0.676806, 0.74188, 24.26754, 199.041458)" style="fill: rgb(70, 70, 85);" width="0.546" height="8.701"/>
  <polygon style="fill: rgb(255, 225, 90);" points="197.699 191.806 198.435 193.419 199.171 192.613"/>
  <rect x="132.265" y="126.08" transform="matrix(0.781447, -0.623971, 0.555592, 0.836047, 26.513878, 169.229202)" style="fill: rgb(70, 70, 85);" width="0.539" height="8.827"/>
  <polygon style="fill: rgb(255, 225, 90);" points="199.206 190.554 199.704 192.274 200.546 191.602"/>
  <rect x="134.664" y="123.677" transform="matrix(0.537262, -0.843415, 0.797047, 0.610053, 26.59343, 232.760544)" style="fill: rgb(70, 70, 85);" width="0.555" height="8.567"/>
  <polygon style="fill: rgb(255, 225, 90);" points="196.387 193.424 197.369 194.87 197.966 193.936"/>
  <rect x="140.585" y="124.877" transform="matrix(-0.673964, -0.738764, 0.676806, -0.74188, 216.174835, 396.17337)" style="fill: rgb(70, 70, 85);" width="0.546" height="8.701"/>
  <polygon style="fill: rgb(255, 225, 90);" points="212.752 191.806 212.016 193.419 211.279 192.613"/>
  <rect x="137.742" y="126.077" transform="matrix(-0.781447, -0.623971, 0.555592, -0.836047, 243.224258, 390.833618)" style="fill: rgb(70, 70, 85);" width="0.539" height="8.827"/>
  <polygon style="fill: rgb(255, 225, 90);" points="211.246 190.554 210.745 192.274 209.905 191.602"/>
  <rect x="143.501" y="123.685" transform="matrix(-0.537262, -0.843415, 0.797047, -0.610053, 184.626556, 396.352783)" style="fill: rgb(70, 70, 85);" width="0.555" height="8.567"/>
  <polygon style="fill: rgb(255, 225, 90);" points="214.063 193.424 213.081 194.87 212.485 193.936"/>
  <path style="fill: rgb(245, 245, 245);" d="M 204.887 213.205 C 204.887 213.205 202.296 210.154 202.798 207.352 C 203.203 205.101 204.428 202.617 205.389 202.013 C 205.389 202.013 206.747 201.921 206.405 203.214 C 206.065 204.505 205.651 204.839 205.772 206.113 C 205.981 208.318 206.305 210.931 204.887 213.205 Z"/>
  <path style="fill: rgb(65, 71, 155);" d="M 205.672 202.029 C 205.512 202.006 205.389 202.013 205.389 202.013 C 204.428 202.617 203.201 205.101 202.798 207.354 C 202.568 208.628 202.981 209.95 203.499 211.017 C 203.172 206.399 204.402 204.76 205.672 202.029 Z"/>
  <path style="fill: rgb(255, 75, 85);" d="M 205.771 206.113 C 205.651 204.84 206.064 204.506 206.405 203.214 C 206.644 202.31 206.051 202.084 205.672 202.03 C 205.672 202.03 204.807 204.209 204.753 205.671 C 204.703 206.958 205.004 212.191 204.887 213.206 C 206.305 210.931 205.981 208.318 205.771 206.113 Z"/>
  <path style="fill: rgb(245, 240, 240);" d="M 204.014 203.119 C 204.553 202.542 205.312 202.283 206.056 202.423 C 205.704 201.18 205.351 199.935 204.999 198.692 C 204.257 198.552 203.496 198.811 202.957 199.387 C 203.307 200.631 203.661 201.874 204.014 203.119 Z"/>
  <path style="fill: rgb(245, 245, 245);" d="M 206.056 202.423 C 206.597 201.846 207.355 201.587 208.098 201.727 C 207.746 200.484 207.394 199.241 207.041 197.996 C 206.299 197.856 205.54 198.115 204.999 198.692 C 205.351 199.935 205.704 201.179 206.056 202.423 Z"/>
  <path style="fill: rgb(95, 100, 185);" d="M 202.166 186.282 C 198.527 186.19 194.934 187.171 191.76 189.121 C 191.323 188.267 190.887 187.411 190.448 186.558 C 194.042 184.349 198.11 183.24 202.227 183.343 C 202.207 184.324 202.186 185.302 202.166 186.282 Z"/>
  <path style="fill: rgb(65, 71, 155);" d="M 216.543 185.499 C 218.899 187.154 220.977 189.262 222.652 191.752 C 221.931 192.333 221.213 192.914 220.494 193.496 C 219.016 191.299 217.183 189.439 215.104 187.977 L 216.543 185.499 Z"/>
  <path style="fill: rgb(95, 100, 185);" d="M 208.288 186.282 C 211.927 186.19 215.519 187.171 218.693 189.121 C 219.131 188.267 219.568 187.411 220.006 186.558 C 216.413 184.349 212.345 183.24 208.226 183.343 C 208.248 184.324 208.268 185.302 208.288 186.282 Z"/>
  <path style="fill: rgb(65, 71, 155);" d="M 210.588 185.499 C 207.079 184.445 203.374 184.445 199.865 185.499 C 199.63 184.554 199.394 183.609 199.159 182.664 C 203.131 181.474 207.322 181.474 211.296 182.664 C 211.06 183.609 210.825 184.553 210.588 185.499 Z"/>
  <g transform="matrix(0.510827, 0, 0, 0.559942, 74.448669, 60.656578)" style="">
    <path style="fill:#FF6B71;" d="M238.432,281.758c-5.663,1.479-11.199,3.474-16.529,5.985c0.746,1.582,1.492,3.165,2.237,4.747 c5.143-2.424,10.489-4.337,15.96-5.742L238.432,281.758z"/>
    <path style="fill:#FF6B71;" d="M273.598,281.758c5.663,1.479,11.199,3.474,16.529,5.985c-0.746,1.582-1.492,3.165-2.237,4.747 c-5.143-2.424-10.489-4.337-15.96-5.742L273.598,281.758z"/>
  </g>
  <g transform="matrix(0.510827, 0, 0, 0.559942, 74.448669, 60.656578)" style="">
    <path style="fill:#FF4B55;" d="M277.119,285.816c-13.799-3.313-28.184-3.313-41.983,0c-0.408-1.702-0.817-3.402-1.225-5.102 c14.603-3.506,29.83-3.506,44.433,0C277.937,282.414,277.528,284.116,277.119,285.816z"/>
    <path style="fill:#FF4B55;" d="M256.014,287.242l-3.618,0.905c-0.828,0.207-1.63-0.419-1.63-1.272v-1.887 c0-0.853,0.802-1.48,1.63-1.272l3.618,0.905V287.242z"/>
    <path style="fill:#FF4B55;" d="M256.014,284.618l3.618-0.905c0.828-0.207,1.63,0.419,1.63,1.272v1.887 c0,0.853-0.802,1.48-1.63,1.272l-3.618-0.905V284.618z"/>
  </g>
  <path style="fill: rgb(255, 107, 113);" d="M 205.37 221.494 L 205.083 221.494 C 204.793 221.494 204.556 221.237 204.556 220.917 L 204.556 220.602 C 204.556 220.284 204.792 220.025 205.083 220.025 L 205.37 220.025 C 205.661 220.025 205.897 220.284 205.897 220.602 L 205.897 220.917 C 205.897 221.237 205.661 221.494 205.37 221.494 Z"/>
  <g transform="matrix(0.510827, 0, 0, 0.559942, 74.448669, 60.656578)" style=""/>
  <g transform="matrix(0.510827, 0, 0, 0.559942, 74.448669, 60.656578)" style=""/>
  <g transform="matrix(0.510827, 0, 0, 0.559942, 74.448669, 60.656578)" style=""/>
  <g transform="matrix(0.510827, 0, 0, 0.559942, 74.448669, 60.656578)" style=""/>
  <g transform="matrix(0.510827, 0, 0, 0.559942, 74.448669, 60.656578)" style=""/>
  <g transform="matrix(0.510827, 0, 0, 0.559942, 74.448669, 60.656578)" style=""/>
  <g transform="matrix(0.510827, 0, 0, 0.559942, 74.448669, 60.656578)" style=""/>
  <g transform="matrix(0.510827, 0, 0, 0.559942, 74.448669, 60.656578)" style=""/>
  <g transform="matrix(0.510827, 0, 0, 0.559942, 74.448669, 60.656578)" style=""/>
  <g transform="matrix(0.510827, 0, 0, 0.559942, 74.448669, 60.656578)" style=""/>
  <g transform="matrix(0.510827, 0, 0, 0.559942, 74.448669, 60.656578)" style=""/>
  <g transform="matrix(0.510827, 0, 0, 0.559942, 74.448669, 60.656578)" style=""/>
  <g transform="matrix(0.510827, 0, 0, 0.559942, 74.448669, 60.656578)" style=""/>
  <g transform="matrix(0.510827, 0, 0, 0.559942, 74.448669, 60.656578)" style=""/>
  <g transform="matrix(0.510827, 0, 0, 0.559942, 74.448669, 60.656578)" style=""/>
</svg>